<?xml version="1.0" encoding="UTF-8" standalone="no"?>
<!-- Created with Inkscape (http://www.inkscape.org/) -->

<svg
   xmlns:dc="http://purl.org/dc/elements/1.1/"
   xmlns:cc="http://creativecommons.org/ns#"
   xmlns:rdf="http://www.w3.org/1999/02/22-rdf-syntax-ns#"
   xmlns:svg="http://www.w3.org/2000/svg"
   xmlns="http://www.w3.org/2000/svg"
   xmlns:sodipodi="http://sodipodi.sourceforge.net/DTD/sodipodi-0.dtd"
   xmlns:inkscape="http://www.inkscape.org/namespaces/inkscape"
   width="8.5364113mm"
   height="8.5364103mm"
   viewBox="0 0 8.5364113 8.5364104"
   version="1.1"
   id="svg1016"
   sodipodi:docname="backrepeat.svg"
   inkscape:version="0.92.4 (5da689c313, 2019-01-14)">
  <defs
     id="defs1010" />
  <sodipodi:namedview
     id="base"
     pagecolor="#ffffff"
     bordercolor="#666666"
     borderopacity="1.0"
     inkscape:pageopacity="0.0"
     inkscape:pageshadow="2"
     inkscape:zoom="3.959798"
     inkscape:cx="47.592844"
     inkscape:cy="55.694384"
     inkscape:document-units="mm"
     inkscape:current-layer="layer1"
     showgrid="false"
     showguides="true"
     inkscape:guide-bbox="true"
     inkscape:window-width="2560"
     inkscape:window-height="1017"
     inkscape:window-x="-8"
     inkscape:window-y="-8"
     inkscape:window-maximized="1"
     fit-margin-top="0"
     fit-margin-left="0"
     fit-margin-right="0"
     fit-margin-bottom="0">
    <sodipodi:guide
       position="9.9999994e-07,-4.023773e-05"
       orientation="0,1"
       id="guide1581"
       inkscape:locked="false"
       inkscape:label=""
       inkscape:color="rgb(0,0,255)" />
    <sodipodi:guide
       position="9.9999994e-07,-4.023773e-05"
       orientation="1,0"
       id="guide1583"
       inkscape:locked="false"
       inkscape:label=""
       inkscape:color="rgb(0,0,255)" />
    <sodipodi:guide
       position="39.687499,-4.023773e-05"
       orientation="1,0"
       id="guide1585"
       inkscape:locked="false"
       inkscape:label=""
       inkscape:color="rgb(0,0,255)" />
    <sodipodi:guide
       position="60.312498,20.624959"
       orientation="1,0"
       id="guide1587"
       inkscape:locked="false" />
    <sodipodi:guide
       position="-9.9999995e-07,39.687458"
       orientation="0,1"
       id="guide1589"
       inkscape:locked="false"
       inkscape:label=""
       inkscape:color="rgb(0,0,255)" />
    <sodipodi:guide
       position="3.3072929,-3.823773e-05"
       orientation="1,0"
       id="guide1591"
       inkscape:locked="false"
       inkscape:label=""
       inkscape:color="rgb(0,0,255)" />
    <sodipodi:guide
       position="36.38021,-3.823773e-05"
       orientation="1,0"
       id="guide1593"
       inkscape:locked="false"
       inkscape:label=""
       inkscape:color="rgb(0,0,255)" />
    <sodipodi:guide
       position="39.687499,36.380168"
       orientation="0,1"
       id="guide1595"
       inkscape:locked="false"
       inkscape:label=""
       inkscape:color="rgb(0,0,255)" />
    <sodipodi:guide
       position="36.38021,3.3072516"
       orientation="0,1"
       id="guide1597"
       inkscape:locked="false"
       inkscape:label=""
       inkscape:color="rgb(0,0,255)" />
    <sodipodi:guide
       position="18.190104,3.3072536"
       orientation="1,0"
       id="guide1599"
       inkscape:locked="false"
       inkscape:label=""
       inkscape:color="rgb(0,0,255)" />
    <sodipodi:guide
       position="21.4974,3.3072536"
       orientation="1,0"
       id="guide1601"
       inkscape:locked="false"
       inkscape:label=""
       inkscape:color="rgb(0,0,255)" />
    <sodipodi:guide
       position="21.4974,18.189959"
       orientation="0,1"
       id="guide1603"
       inkscape:locked="false"
       inkscape:label=""
       inkscape:color="rgb(0,0,255)" />
    <sodipodi:guide
       position="21.4974,21.496959"
       orientation="0,1"
       id="guide1605"
       inkscape:locked="false"
       inkscape:label=""
       inkscape:color="rgb(0,0,255)" />
  </sodipodi:namedview>
  <metadata
     id="metadata1013">
    <rdf:RDF>
      <cc:Work
         rdf:about="">
        <dc:format>image/svg+xml</dc:format>
        <dc:type
           rdf:resource="http://purl.org/dc/dcmitype/StillImage" />
        <dc:title></dc:title>
      </cc:Work>
    </rdf:RDF>
  </metadata>
  <g
     inkscape:label="Livello 1"
     inkscape:groupmode="layer"
     id="layer1"
     transform="translate(-79.374999,-209.08855)">
    <path
       style="fill:#000000;fill-opacity:1;stroke:none;stroke-width:0.08492181;stroke-miterlimit:4;stroke-dasharray:none;stroke-opacity:1"
       d="m 79.374999,209.08855 v 8.53641 h 8.536411 v -8.53641 z m 2.133375,0.67284 a 1.4636615,1.4636615 0 0 1 1.463679,1.46368 1.4636615,1.4636615 0 0 1 -1.463679,1.46368 1.4636615,1.4636615 0 0 1 -1.463679,-1.46368 1.4636615,1.4636615 0 0 1 1.463679,-1.46368 z m 3.19109,0.19875 1.08427,1.08427 1.08439,-1.08427 0.172063,0.17206 -1.084391,1.08427 1.084391,1.08438 -0.172063,0.17207 -1.08439,-1.08427 -1.08427,1.08427 -0.172184,-0.17207 1.084391,-1.08438 -1.084391,-1.08427 z m -3.19109,0.094 a 1.1709291,1.1709291 0 0 0 -1.170846,1.17096 1.1709291,1.1709291 0 0 0 1.170846,1.17097 1.1709291,1.1709291 0 0 0 1.170968,-1.17097 1.1709291,1.1709291 0 0 0 -1.170968,-1.17096 z m 4.269782,3.97076 a 1.4636615,1.4636615 0 0 1 1.463679,1.46368 1.4636615,1.4636615 0 0 1 -1.463679,1.46368 1.4636615,1.4636615 0 0 1 -1.46368,-1.46368 1.4636615,1.4636615 0 0 1 1.46368,-1.46368 z m -5.341441,0.21838 1.084391,1.08427 1.08427,-1.08427 0.172062,0.17219 -1.084271,1.08427 1.084271,1.08427 -0.172062,0.17218 -1.08427,-1.08439 -1.084391,1.08439 -0.172061,-0.17218 1.084268,-1.08427 -1.084268,-1.08427 z m 5.341441,0.0745 a 1.1709291,1.1709291 0 0 0 -1.170846,1.17084 1.1709291,1.1709291 0 0 0 1.170846,1.17097 1.1709291,1.1709291 0 0 0 1.170967,-1.17097 1.1709291,1.1709291 0 0 0 -1.170967,-1.17084 z"
       id="rect1018"
       inkscape:connector-curvature="0" />
  </g>
</svg>
