<?xml version="1.0" encoding="UTF-8" standalone="no"?>
<!-- Created with Inkscape (http://www.inkscape.org/) -->

<svg
   xmlns:dc="http://purl.org/dc/elements/1.1/"
   xmlns:cc="http://creativecommons.org/ns#"
   xmlns:rdf="http://www.w3.org/1999/02/22-rdf-syntax-ns#"
   xmlns:svg="http://www.w3.org/2000/svg"
   xmlns="http://www.w3.org/2000/svg"
   xmlns:sodipodi="http://sodipodi.sourceforge.net/DTD/sodipodi-0.dtd"
   xmlns:inkscape="http://www.inkscape.org/namespaces/inkscape"
   width="112"
   height="112.00006"
   viewBox="0 0 29.633333 29.63335"
   version="1.1"
   id="svg2785"
   inkscape:version="0.92.4 (5da689c313, 2019-01-14)"
   sodipodi:docname="o_game.svg">
  <defs
     id="defs2779" />
  <sodipodi:namedview
     id="base"
     pagecolor="#ffffff"
     bordercolor="#666666"
     borderopacity="1.0"
     inkscape:pageopacity="0.0"
     inkscape:pageshadow="2"
     inkscape:zoom="5.6568544"
     inkscape:cx="22.269089"
     inkscape:cy="49.43827"
     inkscape:document-units="px"
     inkscape:current-layer="layer1"
     showgrid="false"
     showguides="true"
     inkscape:guide-bbox="true"
     units="px"
     fit-margin-top="0"
     fit-margin-left="0"
     fit-margin-right="0"
     fit-margin-bottom="0"
     inkscape:window-width="2560"
     inkscape:window-height="1017"
     inkscape:window-x="-8"
     inkscape:window-y="-8"
     inkscape:window-maximized="1">
    <sodipodi:guide
       position="1e-06,1.0613046e-05"
       orientation="0,1"
       id="guide2787"
       inkscape:locked="false"
       inkscape:label=""
       inkscape:color="rgb(0,0,255)" />
    <sodipodi:guide
       position="-3.7599553e-15,1.1613046e-05"
       orientation="1,0"
       id="guide2789"
       inkscape:locked="false" />
    <sodipodi:guide
       position="-3.7599553e-15,29.633345"
       orientation="0,1"
       id="guide2797"
       inkscape:locked="false"
       inkscape:label=""
       inkscape:color="rgb(0,0,255)" />
    <sodipodi:guide
       position="29.633335,1.1613046e-05"
       orientation="1,0"
       id="guide2799"
       inkscape:locked="false"
       inkscape:label=""
       inkscape:color="rgb(0,0,255)" />
    <sodipodi:guide
       position="20.063798,9.439208"
       orientation="-0.70710678,0.70710678"
       id="guide2801"
       inkscape:locked="false" />
    <sodipodi:guide
       position="9.4464519,20.120736"
       orientation="-0.70710678,0.70710678"
       id="guide2803"
       inkscape:locked="false" />
    <sodipodi:guide
       position="9.4128987,9.5429838"
       orientation="0.70710678,0.70710678"
       id="guide2805"
       inkscape:locked="false" />
    <sodipodi:guide
       position="20.045288,20.205485"
       orientation="0.70710678,0.70710678"
       id="guide2807"
       inkscape:locked="false" />
    <sodipodi:guide
       position="-1e-06,5.6379106"
       orientation="0.70710678,0.70710678"
       id="guide2809"
       inkscape:locked="false" />
    <sodipodi:guide
       position="5.613094,29.633346"
       orientation="-0.70710678,0.70710678"
       id="guide2811"
       inkscape:locked="false" />
    <sodipodi:guide
       position="23.995434,29.633346"
       orientation="0.70710678,0.70710678"
       id="guide2813"
       inkscape:locked="false" />
    <sodipodi:guide
       position="29.633334,5.6131056"
       orientation="-0.70710678,0.70710678"
       id="guide2815"
       inkscape:locked="false" />
  </sodipodi:namedview>
  <metadata
     id="metadata2782">
    <rdf:RDF>
      <cc:Work
         rdf:about="">
        <dc:format>image/svg+xml</dc:format>
        <dc:type
           rdf:resource="http://purl.org/dc/dcmitype/StillImage" />
        <dc:title />
      </cc:Work>
    </rdf:RDF>
  </metadata>
  <g
     inkscape:label="Livello 1"
     inkscape:groupmode="layer"
     id="layer1"
     transform="translate(-26.458332,-240.90832)">
    <path
       style="fill:#004dff;fill-opacity:1;stroke:none;stroke-width:75.64346313;stroke-miterlimit:4;stroke-dasharray:none;stroke-opacity:1"
       d="M 56.232422 0 A 56.000001 55.999997 0 0 0 0.23242188 56 A 56.000001 55.999997 0 0 0 56.232422 112 A 56.000001 55.999997 0 0 0 112.23242 56 A 56.000001 55.999997 0 0 0 56.232422 0 z M 56.232422 7 A 48.999999 48.999999 0 0 1 105.23242 56 A 48.999999 48.999999 0 0 1 56.232422 105 A 48.999999 48.999999 0 0 1 7.2324219 56 A 48.999999 48.999999 0 0 1 56.232422 7 z M 56.232422 11 A 45 45 0 0 0 11.232422 56 A 45 45 0 0 0 56.232422 101 A 45 45 0 0 0 101.23242 56 A 45 45 0 0 0 56.232422 11 z M 56.232422 27.556641 A 28.442446 28.442445 0 0 1 84.673828 56 A 28.442446 28.442445 0 0 1 56.232422 84.441406 A 28.442446 28.442445 0 0 1 27.789062 56 A 28.442446 28.442445 0 0 1 56.232422 27.556641 z "
       transform="matrix(0.26458333,0,0,0.26458333,26.458332,240.90832)"
       id="path4023" />
  </g>
</svg>
