<?xml version="1.0" encoding="UTF-8" standalone="no"?>
<!-- Created with Inkscape (http://www.inkscape.org/) -->

<svg
   xmlns:dc="http://purl.org/dc/elements/1.1/"
   xmlns:cc="http://creativecommons.org/ns#"
   xmlns:rdf="http://www.w3.org/1999/02/22-rdf-syntax-ns#"
   xmlns:svg="http://www.w3.org/2000/svg"
   xmlns="http://www.w3.org/2000/svg"
   xmlns:sodipodi="http://sodipodi.sourceforge.net/DTD/sodipodi-0.dtd"
   xmlns:inkscape="http://www.inkscape.org/namespaces/inkscape"
   width="500.00003"
   height="499.99997"
   viewBox="0 0 132.29167 132.29166"
   version="1.1"
   id="svg1620"
   inkscape:version="0.92.4 (5da689c313, 2019-01-14)"
   sodipodi:docname="O_victory.svg">
  <defs
     id="defs1614" />
  <sodipodi:namedview
     id="base"
     pagecolor="#ffffff"
     bordercolor="#666666"
     borderopacity="1.0"
     inkscape:pageopacity="0.0"
     inkscape:pageshadow="2"
     inkscape:zoom="0.98994949"
     inkscape:cx="354.37715"
     inkscape:cy="276.92342"
     inkscape:document-units="px"
     inkscape:current-layer="layer1"
     showgrid="false"
     showguides="true"
     inkscape:guide-bbox="true"
     units="px"
     fit-margin-top="0"
     fit-margin-left="0"
     fit-margin-right="0"
     fit-margin-bottom="0"
     inkscape:window-width="2560"
     inkscape:window-height="1017"
     inkscape:window-x="-8"
     inkscape:window-y="-8"
     inkscape:window-maximized="1">
    <sodipodi:guide
       position="9.9999998e-07,6.1304582e-07"
       orientation="0,1"
       id="guide1622"
       inkscape:locked="false"
       inkscape:label=""
       inkscape:color="rgb(0,0,255)" />
    <sodipodi:guide
       position="0,1.6130458e-06"
       orientation="1,0"
       id="guide1624"
       inkscape:locked="false" />
    <sodipodi:guide
       position="132.29167,1.6130458e-06"
       orientation="1,0"
       id="guide1626"
       inkscape:locked="false"
       inkscape:label=""
       inkscape:color="rgb(0,0,255)" />
    <sodipodi:guide
       position="132.29167,132.29167"
       orientation="0,1"
       id="guide1628"
       inkscape:locked="false"
       inkscape:label=""
       inkscape:color="rgb(0,0,255)" />
    <sodipodi:guide
       position="39.687501,1.6130458e-06"
       orientation="1,0"
       id="guide1630"
       inkscape:locked="false"
       inkscape:label=""
       inkscape:color="rgb(0,0,255)" />
    <sodipodi:guide
       position="92.604167,1.6130458e-06"
       orientation="1,0"
       id="guide1632"
       inkscape:locked="false"
       inkscape:label=""
       inkscape:color="rgb(0,0,255)" />
    <sodipodi:guide
       position="46.302084,1.6130458e-06"
       orientation="1,0"
       id="guide1634"
       inkscape:locked="false"
       inkscape:label=""
       inkscape:color="rgb(0,0,255)" />
    <sodipodi:guide
       position="85.989587,1.6130458e-06"
       orientation="1,0"
       id="guide1636"
       inkscape:locked="false"
       inkscape:label=""
       inkscape:color="rgb(0,0,255)" />
    <sodipodi:guide
       position="-9.9999998e-07,39.687501"
       orientation="0,1"
       id="guide1638"
       inkscape:locked="false"
       inkscape:label=""
       inkscape:color="rgb(0,0,255)" />
    <sodipodi:guide
       position="-9.9999998e-07,46.302084"
       orientation="0,1"
       id="guide1640"
       inkscape:locked="false"
       inkscape:label=""
       inkscape:color="rgb(0,0,255)" />
    <sodipodi:guide
       position="-9.9999998e-07,85.989586"
       orientation="0,1"
       id="guide1642"
       inkscape:locked="false"
       inkscape:label=""
       inkscape:color="rgb(0,0,255)" />
    <sodipodi:guide
       position="-9.9999998e-07,92.604166"
       orientation="0,1"
       id="guide1644"
       inkscape:locked="false"
       inkscape:label=""
       inkscape:color="rgb(0,0,255)" />
    <sodipodi:guide
       position="-9.9999998e-07,42.333334"
       orientation="0,1"
       id="guide1646"
       inkscape:locked="false"
       inkscape:label=""
       inkscape:color="rgb(0,0,255)" />
    <sodipodi:guide
       position="-9.9999998e-07,43.656251"
       orientation="0,1"
       id="guide1648"
       inkscape:locked="false"
       inkscape:label=""
       inkscape:color="rgb(0,0,255)" />
    <sodipodi:guide
       position="-9.9999998e-07,41.010417"
       orientation="0,1"
       id="guide1650"
       inkscape:locked="false"
       inkscape:label=""
       inkscape:color="rgb(0,0,255)" />
    <sodipodi:guide
       position="-9.9999998e-07,44.979167"
       orientation="0,1"
       id="guide1652"
       inkscape:locked="false"
       inkscape:label=""
       inkscape:color="rgb(0,0,255)" />
    <sodipodi:guide
       position="19.843751,46.302086"
       orientation="1,0"
       id="guide1654"
       inkscape:locked="false"
       inkscape:label=""
       inkscape:color="rgb(0,0,255)" />
  </sodipodi:namedview>
  <metadata
     id="metadata1617">
    <rdf:RDF>
      <cc:Work
         rdf:about="">
        <dc:format>image/svg+xml</dc:format>
        <dc:type
           rdf:resource="http://purl.org/dc/dcmitype/StillImage" />
        <dc:title></dc:title>
      </cc:Work>
    </rdf:RDF>
  </metadata>
  <g
     inkscape:label="Livello 1"
     inkscape:groupmode="layer"
     id="layer1"
     transform="translate(-26.458332,-138.25)">
    <path
       style="fill:#ffffff;stroke:#000000;stroke-width:0.99999994px;stroke-linecap:butt;stroke-linejoin:miter;stroke-opacity:1"
       d="M 0 0 L 0 500 L 500 500 L 500 0 L 0 0 z M 167.45312 392.58008 C 170.37651 392.58008 173.12063 392.84808 175.6875 393.38281 C 178.29001 393.88197 180.71492 394.59452 182.96094 395.52148 C 185.20696 396.4127 187.27456 397.49983 189.16406 398.7832 C 191.05356 400.06669 192.72975 401.4577 194.19141 402.95508 L 188.09375 411.13672 C 187.70159 411.63581 187.23789 412.09954 186.70312 412.52734 C 186.16836 412.91947 185.4196 413.11523 184.45703 413.11523 C 183.81531 413.11523 183.20908 412.97285 182.63867 412.6875 C 182.06823 412.40215 181.46399 412.064 180.82227 411.67188 C 180.18054 411.24403 179.46597 410.79747 178.68164 410.33398 C 177.93295 409.83486 177.02461 409.39025 175.95508 408.99805 C 174.92119 408.57028 173.69164 408.21309 172.26562 407.92773 C 170.87521 407.64249 169.2352 407.5 167.3457 407.5 C 164.35096 407.5 161.60301 408.05307 159.10742 409.1582 C 156.64752 410.26345 154.50962 411.88633 152.69141 414.02539 C 150.90891 416.12881 149.51973 418.73044 148.52148 421.83203 C 147.55891 424.89802 147.07812 428.40991 147.07812 432.36719 C 147.07812 436.36011 147.61016 439.9081 148.67969 443.00977 C 149.78486 446.1114 151.26727 448.73012 153.12109 450.86914 C 155.01063 452.97256 157.19973 454.57842 159.69531 455.68359 C 162.19086 456.78877 164.86664 457.33984 167.71875 457.33984 C 169.35869 457.33984 170.8562 457.26944 172.21094 457.12695 C 173.56567 456.9486 174.83132 456.68258 176.00781 456.32617 C 177.18431 455.93397 178.29033 455.43421 179.32422 454.82812 C 180.35811 454.18644 181.40899 453.38253 182.47852 452.41992 C 182.90632 452.06351 183.37002 451.77837 183.86914 451.56445 C 184.36822 451.315 184.88512 451.19141 185.41992 451.19141 C 185.84773 451.19141 186.27532 451.28254 186.70312 451.46094 C 187.13093 451.60343 187.54143 451.8676 187.93359 452.25977 L 195.09961 459.80078 C 191.96234 463.90062 188.02282 467.00404 183.28125 469.10742 C 178.57533 471.1752 172.99579 472.20898 166.54297 472.20898 C 160.62487 472.20898 155.3114 471.2113 150.60547 469.21484 C 145.93518 467.18274 141.96151 464.39858 138.68164 460.86914 C 135.43737 457.30403 132.94026 453.10052 131.19336 448.25195 C 129.44646 443.36778 128.57227 438.07328 128.57227 432.36914 L 128.57227 432.36719 C 128.57227 426.55609 129.51867 421.22548 131.4082 416.37695 C 133.2977 411.49275 135.95444 407.28729 139.37695 403.75781 C 142.79943 400.22838 146.89658 397.48223 151.67383 395.52148 C 156.45108 393.56067 161.71327 392.58008 167.45312 392.58008 z M 302.43164 392.58203 C 308.4923 392.58203 314.00154 393.61585 318.95703 395.68359 C 323.94816 397.71566 328.20685 400.51305 331.73633 404.07812 C 335.26576 407.64328 337.99478 411.85264 339.91992 416.70117 C 341.88074 421.54974 342.85938 426.77192 342.85938 432.36914 C 342.85937 438.002 341.88074 443.24128 339.91992 448.08984 C 337.99478 452.93837 335.26576 457.16487 331.73633 460.76562 C 328.20685 464.33074 323.94816 467.12806 318.95703 469.16016 C 314.00154 471.19229 308.4923 472.20898 302.43164 472.20898 C 296.37094 472.20898 290.84465 471.19229 285.85352 469.16016 C 280.86238 467.12806 276.58464 464.33074 273.01953 460.76562 C 269.49009 457.16487 266.74597 452.93837 264.78516 448.08984 C 262.86002 443.24128 261.89648 438.002 261.89648 432.36914 C 261.89648 426.73625 262.86002 421.49505 264.78516 416.64648 C 266.74597 411.79796 269.49009 407.59047 273.01953 404.02539 C 276.58464 400.46028 280.86238 397.66101 285.85352 395.62891 C 290.84465 393.59681 296.37094 392.58203 302.43164 392.58203 z M 426.66797 393.43555 C 428.23659 393.43555 429.46613 393.8101 430.35742 394.55859 C 431.28435 395.2716 432.05212 396.19907 432.6582 397.33984 L 443.67383 420.01367 C 444.60072 421.79621 445.43881 423.4724 446.1875 425.04102 C 446.93619 426.57403 447.59561 428.0886 448.16602 429.58594 C 448.70078 428.05296 449.30701 426.52126 449.98438 424.98828 C 450.69738 423.41959 451.51643 421.76057 452.44336 420.01367 L 463.35352 397.33984 C 463.60296 396.87644 463.90531 396.41266 464.26172 395.94922 C 464.61813 395.48577 465.0287 395.07516 465.49219 394.71875 C 465.99131 394.32662 466.54434 394.02447 467.15039 393.81055 C 467.79212 393.5611 468.48569 393.4375 469.23438 393.4375 L 485.27734 393.4375 L 457.04297 441.72656 L 457.04297 471.35352 L 438.9668 471.35352 L 438.9668 441.72656 L 410.73242 393.4375 L 426.66797 393.43555 z M 14.722656 393.4375 L 29.269531 393.4375 C 30.838149 393.4375 32.103798 393.81205 33.066406 394.56055 C 34.028976 395.27355 34.758684 396.20098 35.257812 397.3418 L 50.337891 439.05273 C 51.050902 440.87095 51.746461 442.86631 52.423828 445.04102 C 53.101195 447.18008 53.743562 449.42827 54.349609 451.78125 C 54.848738 449.42827 55.399774 447.18008 56.005859 445.04102 C 56.647582 442.86631 57.326055 440.87095 58.039062 439.05273 L 73.013672 397.3418 C 73.405836 396.34359 74.099445 395.4523 75.097656 394.66797 C 76.131546 393.848 77.397196 393.4375 78.894531 393.4375 L 93.548828 393.4375 L 62.318359 471.35352 L 45.953125 471.35352 L 14.722656 393.4375 z M 99.689453 393.4375 L 117.875 393.4375 L 117.875 471.35352 L 99.689453 471.35352 L 99.689453 393.4375 z M 197.1582 393.4375 L 259.08398 393.4375 L 259.08398 407.76758 L 237.1582 407.76758 L 237.1582 471.35352 L 219.08398 471.35352 L 219.08398 407.76758 L 197.1582 407.76758 L 197.1582 393.4375 z M 353.49609 393.4375 L 378.8457 393.4375 C 384.47856 393.4375 389.27323 394.02468 393.23047 395.20117 C 397.22339 396.34198 400.46731 397.94788 402.96289 400.01562 C 405.49412 402.0834 407.32985 404.52342 408.4707 407.33984 C 409.61155 410.15627 410.18164 413.22347 410.18164 416.53906 C 410.18164 419.07025 409.84338 421.4571 409.16602 423.70312 C 408.48865 425.94915 407.49097 428.03771 406.17188 429.96289 C 404.85278 431.85239 403.21281 433.54563 401.25195 435.04297 C 399.32681 436.54034 397.09763 437.76985 394.56641 438.73242 C 395.7429 439.33851 396.84892 440.10627 397.88281 441.0332 C 398.9167 441.92445 399.84409 442.99047 400.66406 444.23828 L 417.24023 471.35352 L 400.87695 471.35352 C 397.84664 471.35352 395.67261 470.21135 394.35352 467.92969 L 381.41211 445.31055 C 380.80606 444.34794 380.12759 443.65046 379.37891 443.22266 C 378.63022 442.75906 377.56229 442.5293 376.17188 442.5293 L 371.57227 442.5293 L 371.57227 471.35352 L 353.49609 471.35352 L 353.49609 393.4375 z M 371.57227 406.96484 L 371.57227 430.07031 L 378.8457 430.07031 C 381.30565 430.07031 383.39031 429.76647 385.10156 429.16016 C 386.84846 428.51839 388.27373 427.64623 389.37891 426.54102 C 390.48412 425.43584 391.28806 424.15115 391.78711 422.68945 C 392.28608 421.19212 392.53516 419.58821 392.53516 417.87695 C 392.53516 414.45448 391.41204 411.78065 389.16602 409.85547 C 386.95567 407.93037 383.51599 406.96484 378.8457 406.96484 L 371.57227 406.96484 z M 302.43164 407.50195 C 298.93785 407.50195 295.81933 408.07009 293.07422 409.21094 C 290.36475 410.35175 288.06528 411.9918 286.17578 414.13086 C 284.32192 416.26992 282.8947 418.89251 281.89648 421.99414 C 280.89824 425.06013 280.40039 428.51882 280.40039 432.36914 C 280.40039 436.2551 280.89824 439.74798 281.89648 442.84961 C 282.8947 445.9156 284.32192 448.51914 286.17578 450.6582 C 288.06528 452.79726 290.36475 454.43727 293.07422 455.57812 C 295.81933 456.6833 298.93785 457.23438 302.43164 457.23438 C 305.88979 457.23438 308.97409 456.6833 311.68359 455.57812 C 314.39306 454.43727 316.67544 452.79726 318.5293 450.6582 C 320.4188 448.51914 321.8612 445.9156 322.85938 442.84961 C 323.85766 439.74798 324.35742 436.2551 324.35742 432.36914 C 324.35742 428.51882 323.85766 425.06013 322.85938 421.99414 C 321.8612 418.89251 320.4188 416.26992 318.5293 414.13086 C 316.67544 411.9918 314.39306 410.35175 311.68359 409.21094 C 308.97409 408.07009 305.88979 407.50195 302.43164 407.50195 z "
       transform="matrix(0.26458333,0,0,0.26458333,26.458332,138.25)"
       id="path1373" />
    <path
       style="fill:#ffffff;fill-opacity:1;stroke:#358da6;stroke-width:9.01959991;stroke-miterlimit:4;stroke-dasharray:none;stroke-opacity:1"
       d="m 92.604102,181.08835 a 23.307459,23.307459 0 0 0 -23.30742,23.30749 23.307459,23.307459 0 0 0 23.30742,23.30746 23.307459,23.307459 0 0 0 23.307548,-23.30746 23.307459,23.307459 0 0 0 -23.307548,-23.30749 z m 0,4.66146 a 18.645966,18.645966 0 0 1 18.645858,18.64603 18.645966,18.645966 0 0 1 -18.645858,18.646 18.645966,18.645966 0 0 1 -18.646,-18.646 18.645966,18.645966 0 0 1 18.646,-18.64603 z"
       id="path900-7-2-06"
       inkscape:connector-curvature="0" />
  </g>
</svg>
