<?xml version="1.0" encoding="UTF-8" standalone="no"?>
<!-- Created with Inkscape (http://www.inkscape.org/) -->

<svg
   xmlns:dc="http://purl.org/dc/elements/1.1/"
   xmlns:cc="http://creativecommons.org/ns#"
   xmlns:rdf="http://www.w3.org/1999/02/22-rdf-syntax-ns#"
   xmlns:svg="http://www.w3.org/2000/svg"
   xmlns="http://www.w3.org/2000/svg"
   xmlns:sodipodi="http://sodipodi.sourceforge.net/DTD/sodipodi-0.dtd"
   xmlns:inkscape="http://www.inkscape.org/namespaces/inkscape"
   width="400"
   height="69.999954"
   viewBox="0 0 105.83333 18.520822"
   version="1.1"
   id="svg40"
   inkscape:version="0.92.4 (5da689c313, 2019-01-14)"
   sodipodi:docname="title.svg">
  <defs
     id="defs34" />
  <sodipodi:namedview
     id="base"
     pagecolor="#ffffff"
     bordercolor="#666666"
     borderopacity="1.0"
     inkscape:pageopacity="0.0"
     inkscape:pageshadow="2"
     inkscape:zoom="2.8"
     inkscape:cx="166.00445"
     inkscape:cy="36.158713"
     inkscape:document-units="px"
     inkscape:current-layer="layer1"
     showgrid="false"
     units="px"
     showguides="true"
     inkscape:guide-bbox="true"
     fit-margin-top="0"
     fit-margin-left="0"
     fit-margin-right="0"
     fit-margin-bottom="0"
     inkscape:window-width="2560"
     inkscape:window-height="1017"
     inkscape:window-x="-8"
     inkscape:window-y="-8"
     inkscape:window-maximized="1">
    <sodipodi:guide
       position="2.8764648e-06,-3.5771855e-06"
       orientation="0,1"
       id="guide42"
       inkscape:locked="false"
       inkscape:label=""
       inkscape:color="rgb(0,0,255)" />
    <sodipodi:guide
       position="2.8764648e-06,-3.5771855e-06"
       orientation="1,0"
       id="guide44"
       inkscape:locked="false" />
    <sodipodi:guide
       position="105.83334,-2.5771855e-06"
       orientation="1,0"
       id="guide46"
       inkscape:locked="false"
       inkscape:label=""
       inkscape:color="rgb(0,0,255)" />
    <sodipodi:guide
       position="105.83334,18.520829"
       orientation="0,1"
       id="guide48"
       inkscape:locked="false"
       inkscape:label=""
       inkscape:color="rgb(0,0,255)" />
  </sodipodi:namedview>
  <metadata
     id="metadata37">
    <rdf:RDF>
      <cc:Work
         rdf:about="">
        <dc:format>image/svg+xml</dc:format>
        <dc:type
           rdf:resource="http://purl.org/dc/dcmitype/StillImage" />
        <dc:title></dc:title>
      </cc:Work>
    </rdf:RDF>
  </metadata>
  <g
     inkscape:label="Livello 1"
     inkscape:groupmode="layer"
     id="layer1"
     transform="translate(-52.916664,-225.5625)">
    <path
       style="opacity:1;fill:#e7ebe1;fill-opacity:1;stroke:none;stroke-width:1.05894244;stroke-miterlimit:4;stroke-dasharray:none;stroke-opacity:1"
       d="m 69.027825,225.56248 v 18.52084 h 21.828126 v -18.52084 z m 16.958655,6.2482 c 0.633005,-0.0226 0.951244,0.0407 1.451074,0.28681 0.421913,0.20778 0.762247,0.49287 1.010276,0.84646 l 0.154511,0.22066 -0.516247,0.25631 c -0.284156,0.14096 -0.522484,0.24826 -0.529684,0.23926 -0.42209,-0.54568 -0.797303,-0.74213 -1.415417,-0.74155 -1.074658,7.1e-4 -1.79326,0.84308 -1.72496,2.02158 0.06256,1.07951 0.73094,1.77312 1.71049,1.77612 0.609975,0.001 1.055768,-0.2168 1.375627,-0.67386 l 0.06408,-0.092 0.517799,0.25684 0.517279,0.25631 -0.142111,0.20722 c -0.571883,0.8331 -1.571952,1.26314 -2.677355,1.15135 -1.18365,-0.11972 -2.108031,-0.94487 -2.426208,-2.16627 -0.10562,-0.4055 -0.11355,-1.21355 -0.01602,-1.61954 0.143658,-0.59791 0.454836,-1.14643 0.859896,-1.51619 0.306616,-0.27992 0.575752,-0.43911 0.977718,-0.57878 0.279919,-0.0972 0.393525,-0.11594 0.809253,-0.13074 z m -14.705045,0.0295 h 2.156457 2.156458 v 0.53898 0.53899 h -2.156458 -2.156457 v -0.53899 z m 7.58455,0 h 0.557588 0.558106 v 0.46457 0.46509 h -0.558106 -0.557588 v -0.46509 z m 0,1.78439 h 0.557588 0.558106 v 2.08256 2.08204 h -0.558106 -0.557588 v -2.08204 z m -5.986198,0.18603 h 0.558105 0.557589 v 1.98903 1.98954 h -0.557589 -0.558105 v -1.98954 z m 13.33717,0.45785 c 0.09146,0.007 0.183928,0.0377 0.270268,0.0992 0.316084,0.22506 0.306454,0.73017 -0.01757,0.92966 -0.123215,0.0759 -0.330996,0.11642 -0.445968,0.0868 -0.117303,-0.0302 -0.31107,-0.19158 -0.37207,-0.30954 -0.209733,-0.40558 0.168998,-0.83516 0.56534,-0.80616 z"
       id="rect199-2-8"
       inkscape:connector-curvature="0" />
    <path
       style="opacity:1;fill:#e7ebe1;fill-opacity:1;stroke:none;stroke-width:1.05894244;stroke-miterlimit:4;stroke-dasharray:none;stroke-opacity:1"
       d="m 120.22189,225.56249 v 18.52084 h 21.82813 v -18.52084 z m 10.80348,6.25027 c 0.55769,0.001 0.63902,0.0101 0.89814,0.0971 0.91819,0.30777 1.54019,0.9675 1.84071,1.95337 0.0897,0.29409 0.0998,0.38699 0.1018,0.9219 0.002,0.51032 -0.01,0.63969 -0.0827,0.90951 -0.0982,0.36094 -0.35114,0.8727 -0.5519,1.11673 -0.43474,0.5284 -1.13242,0.91897 -1.7601,0.98547 -0.41255,0.0437 -0.50784,0.0462 -0.79944,0.0171 l -5.1e-4,-5.2e-4 c -1.19819,-0.11969 -2.12412,-0.94146 -2.44637,-2.17247 -0.11444,-0.43629 -0.11092,-1.25142 0.007,-1.69241 0.22294,-0.83679 0.74197,-1.50139 1.44849,-1.85518 0.49935,-0.25 0.65344,-0.2826 1.34462,-0.2806 z m -9.89087,0.0165 h 2.15646 2.15646 v 0.53951 0.53898 h -2.15646 -2.15646 v -0.53898 z m 16.06207,0 h 1.93321 1.93374 v 0.53951 0.53898 h -1.93374 -1.93321 v -0.53898 z m -6.18515,1.07901 c -0.50575,7e-4 -0.87732,0.15178 -1.22318,0.49764 -0.59525,0.59525 -0.67981,1.80491 -0.18035,2.57762 0.39902,0.61735 1.23785,0.88823 1.97145,0.63666 0.73828,-0.25321 1.15549,-0.90923 1.15549,-1.81643 0,-1.14004 -0.68843,-1.89749 -1.72341,-1.89549 z m -8.27857,0.89193 h 0.55811 0.55759 v 1.98903 1.98902 h -0.55759 -0.55811 v -1.98902 z m 8.28787,0.44597 c 0.20751,3e-4 0.35695,0.0906 0.47542,0.28629 0.22625,0.37372 -0.0427,0.82948 -0.48937,0.82889 -0.12087,-10e-5 -0.22486,-0.0253 -0.29456,-0.0713 -0.16875,-0.11124 -0.25425,-0.27602 -0.25425,-0.49092 0,-0.31213 0.24543,-0.55338 0.56276,-0.55294 z m 6.17585,0.0372 h 1.80299 1.80351 v 0.52038 0.5209 h -1.80351 -1.80299 v -0.5209 z m 0,2.4169 h 1.97042 1.97094 v 0.53899 0.53898 h -1.97094 -1.97042 v -0.53898 z"
       id="rect199"
       inkscape:connector-curvature="0" />
    <rect
       style="opacity:1;fill:#e7ebe1;fill-opacity:1;stroke:none;stroke-width:1;stroke-miterlimit:4;stroke-dasharray:none;stroke-opacity:1"
       id="rect71"
       width="105.83333"
       height="1.6063168"
       x="52.916664"
       y="242.47701" />
    <rect
       style="opacity:1;fill:#e7ebe1;fill-opacity:1;stroke:none;stroke-width:0.99999994;stroke-miterlimit:4;stroke-dasharray:none;stroke-opacity:1"
       id="rect71-9"
       width="105.83333"
       height="1.6063167"
       x="52.916668"
       y="225.5625" />
    <path
       inkscape:connector-curvature="0"
       style="fill:#e7ebe1;fill-opacity:1;stroke:none;stroke-width:0.11811756px;stroke-linecap:butt;stroke-linejoin:miter;stroke-opacity:1"
       d="m 57.35964,228.44456 -2.505845,2.50584 3.744234,3.76454 2.515997,-2.516 z m 8.206403,0 -4.103202,4.1032 -2.516918,2.51691 -4.092128,4.09213 2.515996,2.516 4.092128,-4.09213 2.516919,-2.51692 4.104124,-4.10412 z m -1.238389,6.96801 -2.516919,2.51692 3.744235,3.74423 2.527992,-2.50584 z"
       id="path2817" />
    <path
       inkscape:connector-curvature="0"
       style="fill:#e7ebe1;fill-opacity:1;stroke:none;stroke-width:8.93482304;stroke-miterlimit:4;stroke-dasharray:none;stroke-opacity:1"
       d="m 150.73691,228.15553 a 6.6145847,6.6145843 0 0 0 -6.61458,6.61459 6.6145847,6.6145843 0 0 0 6.61458,6.61458 6.6145847,6.6145843 0 0 0 6.61458,-6.61458 6.6145847,6.6145843 0 0 0 -6.61458,-6.61459 z m 0,0.82682 a 5.7877613,5.7877613 0 0 1 5.78776,5.78777 5.7877613,5.7877613 0 0 1 -5.78776,5.78776 5.7877613,5.7877613 0 0 1 -5.78776,-5.78776 5.7877613,5.7877613 0 0 1 5.78776,-5.78777 z m 0,0.47248 a 5.3152912,5.3152912 0 0 0 -5.31529,5.31529 5.3152912,5.3152912 0 0 0 5.31529,5.31529 5.3152912,5.3152912 0 0 0 5.31529,-5.31529 5.3152912,5.3152912 0 0 0 -5.31529,-5.31529 z m 0,1.95563 a 3.3595529,3.3595528 0 0 1 3.35943,3.35966 3.3595529,3.3595528 0 0 1 -3.35943,3.35943 3.3595529,3.3595528 0 0 1 -3.35966,-3.35943 3.3595529,3.3595528 0 0 1 3.35966,-3.35966 z"
       id="path4023" />
    <path
       style="fill:#e7ebe1;stroke-width:0.03718103;fill-opacity:1"
       d="m 113.52788,232.36555 c -0.53398,-0.002 -0.83726,0.0664 -1.29191,0.29094 -1.64111,0.81064 -2.11887,3.10245 -0.96739,4.64003 0.40451,0.54013 1.07426,0.95098 1.73013,1.06143 0.8871,0.14937 1.8016,-0.1174 2.44584,-0.71416 0.21479,-0.19896 0.53233,-0.60556 0.49713,-0.63666 -0.009,-0.007 -0.0644,-0.0386 -0.12402,-0.0692 l -0.10801,-0.0553 -0.21187,0.26665 c -0.43299,0.54486 -1.01944,0.87055 -1.70119,0.94465 -1.10931,0.12063 -2.11993,-0.4665 -2.58588,-1.50275 -0.1866,-0.41505 -0.25682,-0.74254 -0.25735,-1.20613 -0.002,-0.85697 0.32931,-1.61184 0.94206,-2.14664 0.43902,-0.3832 0.89541,-0.56402 1.50275,-0.59531 0.72094,-0.0372 1.34481,0.20169 1.85518,0.71055 0.16685,0.16634 0.33696,0.35069 0.37776,0.40979 0.0737,0.1067 0.0747,0.10708 0.19378,0.0455 0.066,-0.0341 0.11989,-0.0711 0.11989,-0.0822 0,-0.0518 -0.25069,-0.37575 -0.4284,-0.55345 -0.54094,-0.54095 -1.19028,-0.8047 -1.9885,-0.80771 z m -8.3473,0.0434 -0.14417,0.01 -0.14418,0.0103 -0.2713,0.70641 c -0.14916,0.38854 -0.66356,1.7229 -1.14309,2.9652 l -0.87178,2.25877 h 0.15865 c 0.14608,0 0.16262,-0.01 0.20102,-0.12092 0.18646,-0.53776 2.06401,-5.34122 2.08101,-5.32422 0.0121,0.0121 0.49115,1.23819 1.06453,2.72438 l 1.04232,2.70216 0.15554,0.0114 0.15607,0.0114 -0.0455,-0.12764 c -0.0249,-0.0701 -0.53878,-1.40977 -1.14205,-2.97708 z m -9.499677,0.002 v 0.13023 0.13022 h 2.137854 2.137854 v -0.13022 -0.13023 h -2.137854 z m 2.008147,1.59887 v 2.17506 2.17506 h 0.129707 0.130225 v -2.17506 -2.17506 h -0.130225 z m 15.82022,1.04076 c -0.33833,0 -0.43163,0.50547 -0.11679,0.63253 0.11528,0.0465 0.16372,0.0436 0.28216,-0.0176 0.29584,-0.15298 0.17155,-0.61495 -0.16537,-0.61495 z"
       id="path69-9-2-9"
       inkscape:connector-curvature="0" />
  </g>
</svg>
